<svg xmlns="http://www.w3.org/2000/svg" x="0px" y="0px"
width="24" height="24"
viewBox="0 0 172 172"
style=" fill:tranparent;">
<g transform="">
    <g fill="none" fill-rule="nonzero" stroke="none" stroke-width="1" stroke-linecap="butt" stroke-linejoin="miter" stroke-miterlimit="10" stroke-dasharray="" stroke-dashoffset="0" font-family="none" font-weight="none" font-size="none" text-anchor="none" style="mix-blend-mode: normal"><path d="M0,172v-172h172v172z" fill="none"></path>
        <path d="" fill="none"></path><path d="" fill="none"></path>
        <path d="" fill="none"></path>
        <g fill="#ffffff">
            <path d="M17.2,30.96c-9.46,0 -17.2,7.74 -17.2,17.2v75.68c0,9.46 7.74,17.2 17.2,17.2h92.88c9.46,0 17.2,-7.74 17.2,-17.2v-18.3825l39.6675,21.3925l5.0525,2.795v-87.29l-5.0525,2.795l-39.6675,21.3925v-18.3825c0,-9.46 -7.74,-17.2 -17.2,-17.2zM17.2,37.84h92.88c5.73781,0 10.32,4.58219 10.32,10.32v75.68c0,5.73781 -4.58219,10.32 -10.32,10.32h-92.88c-5.73781,0 -10.32,-4.58219 -10.32,-10.32v-75.68c0,-5.73781 4.58219,-10.32 10.32,-10.32zM165.12,53.8575v64.285l-37.84,-20.425v-23.435z"></path>
        </g>
    </g>
</g>
</svg>